<svg aria-hidden="true" style="position: absolute; width: 0; height: 0; overflow: hidden;" version="1.1" xmlns="http://www.w3.org/2000/svg" xmlns:xlink="http://www.w3.org/1999/xlink">
<defs>
<symbol id="icon-time" viewBox="0 0 32 32">
<path d="M16 29.333c7.364 0 13.333-5.969 13.333-13.333s-5.969-13.333-13.333-13.333c-7.364 0-13.333 5.969-13.333 13.333s5.969 13.333 13.333 13.333zM16 4c6.628 0 12 5.372 12 12s-5.372 12-12 12c-6.628 0-12-5.372-12-12s5.372-12 12-12zM6 16.667h1.333c0.368 0 0.667-0.298 0.667-0.667s-0.298-0.667-0.667-0.667h-1.333c-0.368 0-0.667 0.298-0.667 0.667s0.298 0.667 0.667 0.667zM26 16.667h-1.333c-0.368 0-0.667-0.298-0.667-0.667s0.298-0.667 0.667-0.667h1.333c0.368 0 0.667 0.298 0.667 0.667s-0.298 0.667-0.667 0.667zM15.333 6v1.333c0 0.368 0.298 0.667 0.667 0.667s0.667-0.298 0.667-0.667v-1.333c0-0.368-0.298-0.667-0.667-0.667s-0.667 0.298-0.667 0.667zM15.333 26v-1.333c0-0.368 0.298-0.667 0.667-0.667s0.667 0.298 0.667 0.667v1.333c0 0.368-0.298 0.667-0.667 0.667s-0.667-0.298-0.667-0.667zM16.618 16.209c-0.045 0.162-0.152 0.307-0.309 0.398l-3.969 2.292c-0.319 0.184-0.727 0.075-0.911-0.244s-0.075-0.727 0.244-0.911l3.757-2.169 1.981-5.444c0.126-0.346 0.508-0.524 0.854-0.399s0.524 0.508 0.399 0.854l-2.046 5.623z"></path>
</symbol>
<symbol id="icon-delivery" viewBox="0 0 32 32">
<path d="M16.512 12.8c-0.139 0.004-0.272 0.062-0.37 0.162l-2.814 2.805-1.733-1.728c-0.485-0.506-1.269 0.275-0.763 0.759l2.115 2.11c0.21 0.21 0.551 0.21 0.763 0l3.195-3.186c0.352-0.341 0.093-0.923-0.391-0.923zM0.533 17.067h3.2c0.295 0 0.533 0.238 0.533 0.533s-0.238 0.533-0.533 0.533h-3.2c-0.295 0-0.533-0.238-0.533-0.533s0.238-0.533 0.533-0.533zM0.533 12.8h3.2c0.295 0 0.533 0.238 0.533 0.533s-0.238 0.533-0.533 0.533h-3.2c-0.295 0-0.533-0.238-0.533-0.533s0.238-0.533 0.533-0.533zM0.533 8.533h3.2c0.295 0 0.533 0.238 0.533 0.533s-0.238 0.533-0.533 0.533h-3.2c-0.295 0-0.533-0.238-0.533-0.533s0.238-0.533 0.533-0.533zM26.133 20.267c-1.467 0-2.667 1.2-2.667 2.667s1.2 2.667 2.667 2.667 2.667-1.2 2.667-2.667-1.2-2.667-2.667-2.667zM26.133 21.333c0.89 0 1.6 0.71 1.6 1.6s-0.71 1.6-1.6 1.6-1.6-0.71-1.6-1.6 0.71-1.6 1.6-1.6zM12.267 20.267c-1.467 0-2.667 1.2-2.667 2.667s1.2 2.667 2.667 2.667 2.667-1.2 2.667-2.667-1.2-2.667-2.667-2.667zM12.267 21.333c0.89 0 1.6 0.71 1.6 1.6s-0.71 1.6-1.6 1.6-1.6-0.71-1.6-1.6 0.71-1.6 1.6-1.6zM6.933 6.4c-0.877 0-1.6 0.723-1.6 1.6v11.733c0 0.877 0.723 1.6 1.6 1.6h2.133c0.721 0.011 0.721-1.077 0-1.067h-2.133c-0.305 0-0.533-0.228-0.533-0.533v-11.733c0-0.305 0.228-0.533 0.533-0.533h13.867c0.305 0 0.533 0.228 0.533 0.533v12.267h-5.867c-0.704 0-0.691 1.077 0 1.067h7.467c0.704 0 0.698-1.067 0-1.067h-0.533v-9.6h4.509l4.025 6.289v2.778c0 0.305-0.228 0.533-0.533 0.533h-1.067c-0.698 0-0.698 1.067 0 1.067h1.067c0.877 0 1.6-0.723 1.6-1.6v-2.933c0-0.101-0.029-0.203-0.083-0.288l-4.267-6.667c-0.098-0.153-0.267-0.245-0.45-0.245h-4.8v-1.6c0-0.877-0.723-1.6-1.6-1.6z"></path>
</symbol>
<symbol id="icon-discount" viewBox="0 0 32 32">
<path d="M25.531 13.444c-0.075-0.275 0.025-0.706 0.119-1.119 0.144-0.619 0.306-1.319-0.025-1.881-0.331-0.575-1.025-0.787-1.637-0.969-0.4-0.125-0.819-0.25-1.012-0.444s-0.325-0.613-0.444-1.012c-0.188-0.612-0.394-1.306-0.969-1.638-0.225-0.131-0.488-0.194-0.794-0.194-0.356 0-0.731 0.088-1.087 0.169-0.325 0.075-0.631 0.144-0.894 0.144-0.087 0-0.163-0.006-0.231-0.025-0.256-0.069-0.569-0.362-0.869-0.644-0.469-0.444-1.006-0.944-1.688-0.944s-1.213 0.5-1.688 0.944c-0.3 0.281-0.613 0.575-0.869 0.644-0.063 0.019-0.144 0.025-0.231 0.025-0.256 0-0.569-0.069-0.894-0.144-0.363-0.081-0.731-0.169-1.088-0.169-0.313 0-0.569 0.063-0.794 0.194-0.575 0.331-0.787 1.025-0.969 1.638-0.125 0.4-0.25 0.819-0.444 1.012s-0.613 0.325-1.012 0.444c-0.612 0.188-1.306 0.394-1.638 0.969-0.331 0.569-0.169 1.269-0.025 1.881 0.094 0.412 0.194 0.844 0.119 1.119-0.069 0.256-0.362 0.569-0.644 0.869-0.444 0.469-0.944 1.006-0.944 1.688s0.5 1.212 0.944 1.688c0.281 0.3 0.575 0.613 0.644 0.869 0.075 0.275-0.025 0.706-0.119 1.119-0.144 0.619-0.306 1.319 0.025 1.881 0.331 0.575 1.025 0.788 1.638 0.969 0.4 0.125 0.819 0.25 1.012 0.444s0.325 0.613 0.444 1.012c0.188 0.613 0.394 1.306 0.969 1.637 0.225 0.131 0.488 0.194 0.794 0.194 0.356 0 0.731-0.087 1.088-0.169 0.325-0.075 0.631-0.144 0.894-0.144 0.088 0 0.162 0.006 0.231 0.025 0.256 0.069 0.569 0.363 0.869 0.644 0.469 0.444 1.006 0.944 1.688 0.944s1.212-0.5 1.688-0.944c0.3-0.281 0.613-0.575 0.869-0.644 0.063-0.019 0.144-0.025 0.231-0.025 0.256 0 0.569 0.069 0.894 0.144 0.363 0.081 0.731 0.169 1.087 0.169 0.313 0 0.569-0.063 0.794-0.194 0.575-0.331 0.788-1.025 0.969-1.637 0.125-0.4 0.25-0.819 0.444-1.012s0.613-0.325 1.012-0.444c0.613-0.188 1.306-0.394 1.637-0.969 0.331-0.569 0.169-1.269 0.025-1.881-0.094-0.413-0.194-0.844-0.119-1.119 0.069-0.256 0.363-0.569 0.644-0.869 0.444-0.469 0.944-1.006 0.944-1.688s-0.5-1.213-0.944-1.688c-0.281-0.3-0.575-0.613-0.644-0.869zM25.488 17.044c-0.363 0.387-0.731 0.781-0.863 1.269-0.137 0.506-0.006 1.050 0.113 1.575 0.106 0.469 0.219 0.956 0.075 1.206-0.15 0.256-0.631 0.4-1.1 0.544-0.512 0.156-1.044 0.319-1.406 0.681s-0.525 0.894-0.681 1.406c-0.144 0.469-0.288 0.95-0.544 1.1-0.081 0.044-0.188 0.069-0.325 0.069-0.25 0-0.556-0.069-0.881-0.144-0.363-0.081-0.738-0.169-1.1-0.169-0.175 0-0.325 0.019-0.469 0.056-0.488 0.131-0.881 0.5-1.269 0.863-0.363 0.337-0.738 0.688-1.044 0.688s-0.681-0.35-1.044-0.688c-0.387-0.363-0.781-0.731-1.269-0.863-0.144-0.038-0.3-0.056-0.469-0.056-0.363 0-0.738 0.087-1.1 0.169-0.325 0.075-0.625 0.144-0.881 0.144-0.137 0-0.244-0.025-0.325-0.069-0.256-0.15-0.4-0.631-0.544-1.1-0.156-0.512-0.319-1.044-0.681-1.406s-0.894-0.525-1.406-0.681c-0.469-0.144-0.95-0.288-1.1-0.544-0.144-0.25-0.031-0.731 0.075-1.206 0.119-0.525 0.25-1.069 0.112-1.575-0.131-0.488-0.5-0.881-0.862-1.269-0.338-0.363-0.688-0.738-0.688-1.044 0-0.313 0.35-0.681 0.688-1.044 0.362-0.387 0.731-0.781 0.862-1.269 0.138-0.506 0.006-1.050-0.112-1.575-0.106-0.469-0.219-0.956-0.075-1.206 0.15-0.256 0.631-0.4 1.1-0.544 0.512-0.156 1.044-0.319 1.406-0.681s0.525-0.894 0.681-1.406c0.144-0.469 0.287-0.95 0.544-1.1 0.081-0.044 0.188-0.069 0.325-0.069 0.25 0 0.556 0.069 0.881 0.144 0.363 0.081 0.738 0.169 1.1 0.169 0.175 0 0.325-0.019 0.469-0.056 0.488-0.131 0.881-0.5 1.269-0.862 0.363-0.338 0.738-0.688 1.044-0.688s0.681 0.35 1.044 0.688c0.387 0.362 0.781 0.731 1.269 0.862 0.144 0.037 0.3 0.056 0.469 0.056 0.363 0 0.738-0.088 1.1-0.169 0.325-0.075 0.625-0.144 0.881-0.144 0.137 0 0.244 0.025 0.325 0.069 0.256 0.15 0.4 0.631 0.544 1.1 0.156 0.512 0.319 1.044 0.681 1.406s0.894 0.525 1.406 0.681c0.469 0.144 0.95 0.287 1.1 0.544 0.144 0.25 0.031 0.731-0.075 1.206-0.119 0.525-0.25 1.069-0.113 1.575 0.131 0.488 0.5 0.881 0.863 1.269 0.337 0.363 0.688 0.738 0.688 1.044 0.006 0.313-0.344 0.681-0.688 1.044z"></path>
<path d="M12.431 14.662c1.231 0 2.225-1 2.225-2.225 0-1.231-1-2.225-2.225-2.225-1.231 0-2.225 1-2.225 2.225s1 2.225 2.225 2.225zM12.431 11.144c0.713 0 1.287 0.581 1.287 1.287 0 0.713-0.581 1.287-1.287 1.287s-1.287-0.581-1.287-1.287c0-0.706 0.581-1.287 1.287-1.287z"></path>
<path d="M19.569 17.337c-1.231 0-2.225 1-2.225 2.225 0 1.231 1 2.225 2.225 2.225 1.231 0 2.225-1 2.225-2.225s-1-2.225-2.225-2.225zM19.569 20.856c-0.712 0-1.288-0.581-1.288-1.288s0.581-1.288 1.288-1.288 1.288 0.581 1.288 1.288-0.581 1.288-1.288 1.288z"></path>
<path d="M21.188 10.813c-0.181-0.181-0.481-0.181-0.663 0l-9.713 9.706c-0.181 0.181-0.181 0.481 0 0.663 0.094 0.094 0.213 0.137 0.331 0.137s0.238-0.044 0.331-0.137l9.713-9.7c0.181-0.188 0.181-0.481 0-0.669z"></path>
</symbol>
<symbol id="icon-food" viewBox="0 0 32 32">
<path d="M16.002 1.375c-8.072 0-14.627 6.552-14.627 14.623s6.555 14.627 14.627 14.627c8.072 0 14.623-6.555 14.623-14.627s-6.552-14.623-14.623-14.623zM16.002 2.319c7.562 0 13.68 6.118 13.68 13.68s-6.118 13.683-13.68 13.683c-7.562 0-13.683-6.122-13.683-13.683s6.122-13.68 13.683-13.68zM11.624 6.745c-0.322 0.004-0.647 0.084-0.972 0.205-0.649 0.242-1.297 0.653-1.772 1.128-0.328 0.328-0.619 0.74-0.851 1.177-0.634 0.244-1.266 0.642-1.73 1.105-0.475 0.475-0.883 1.123-1.125 1.772-0.121 0.325-0.201 0.65-0.205 0.972-0.004 0.286 0.066 0.59 0.261 0.835-0.214 0.324-0.398 0.673-0.529 1.025-0.121 0.325-0.201 0.65-0.205 0.972s0.075 0.67 0.331 0.926 0.605 0.335 0.927 0.331c0.28-0.004 0.563-0.072 0.846-0.168-0.375 0.828-0.589 1.743-0.589 2.71 0 2.541 1.445 4.749 3.555 5.854 1.791 1.096 3.896 1.731 6.148 1.731 6.508 0 11.793-5.283 11.793-11.792 0-1.198-0.176-2.357-0.509-3.448l-0.002 0.001c-0.271-2.351-2.074-4.533-4.839-4.629-0.257-0.008-0.488 0.060-0.69 0.175-0.051-0.13-0.109-0.256-0.177-0.377-0.342-0.606-0.936-1.107-1.753-1.126-1.099 0.172-1.63 0.001-2.103-0.246h0c-0.472-0.247-0.896-0.647-1.581-0.825-0.336-0.087-0.654-0.134-0.952-0.14-0.496-0.011-0.937 0.089-1.308 0.293-0.594 0.327-0.969 0.907-1.166 1.655-0.256-0.060-0.536-0.119-0.801-0.116l0 0zM14.681 5.861c0.258-0.018 0.565 0.013 0.933 0.108 0.416 0.108 0.78 0.431 1.379 0.745 0.393 0.206 1.094 0.19 1.724 0.226-0.411 0.776-0.837 1.524-1.39 1.874-0.707 0.449-1.522 0.573-2.563 0.278-0.423-0.12-0.858-0.443-1.132-0.843s-0.383-0.848-0.275-1.243c0.127-0.467 0.352-0.786 0.689-0.971 0.168-0.093 0.376-0.157 0.634-0.174zM19.83 7.116c0.245 0.091 0.466 0.296 0.636 0.597 0.234 0.413 0.321 0.966 0.209 1.376-0.237 0.872-1.101 1.369-1.947 1.129-0.487-0.138-0.837-0.318-0.976-0.565 0.924-0.58 1.579-1.444 2.078-2.537zM11.791 8.642c-0.189 0.506-0.554 1.084-0.909 1.438-0.163 0.163-0.376 0.325-0.604 0.475 0.018-0.129 0.030-0.259 0.023-0.387-0.015-0.283-0.106-0.583-0.331-0.808-0.192-0.192-0.436-0.285-0.682-0.317 0.086-0.109 0.173-0.212 0.26-0.299 0.354-0.354 0.928-0.72 1.435-0.909 0.253-0.095 0.605-0.257 0.918-0.108 0.147 0.315-0.015 0.662-0.11 0.915zM22.12 8.395c2.487 0.086 3.97 2.18 3.97 4.301 0 2.039-1.836 4.152-3.984 4.294-0.202 0.014-0.445-0.256-0.445-0.526v-7.536c0-0.271 0.242-0.54 0.459-0.533zM13.853 9.705c-0.312 0.202-0.564 0.487-0.738 0.818-0.291 0.552-0.248 1.183-0.029 1.714 0.162 0.392 0.42 0.745 0.749 1.013-0.396-0.074-0.802-0.118-1.219-0.118-1.045 0-2.030 0.251-2.91 0.685 0.069-0.235 0.12-0.47 0.123-0.702 0.004-0.287-0.066-0.588-0.261-0.832 0.093-0.141 0.18-0.287 0.259-0.436 0.632-0.244 1.258-0.639 1.719-1.1 0.475-0.475 0.886-1.123 1.217-1.868 0.348 0.282 0.695 0.596 1.089 0.827v-0zM23.228 9.935c-0.119 0.006-0.233 0.054-0.317 0.139l-0.334 0.331c-0.185 0.184-0.185 0.485 0 0.669 0.184 0.185 0.484 0.185 0.668 0l0.334-0.335c0.183-0.184 0.183-0.481 0-0.665-0.093-0.093-0.22-0.144-0.352-0.139zM9.274 10.746c-0.108 0.355-0.321 0.765-0.568 1.12-0.044-0.004-0.089-0.008-0.133-0.008-0.322 0.004-0.646 0.084-0.971 0.205-0.614 0.229-1.224 0.612-1.69 1.054 0.002-0.164 0.052-0.401 0.146-0.653 0.189-0.506 0.555-1.081 0.909-1.436s0.928-0.723 1.435-0.912c0.253-0.095 0.491-0.197 0.804-0.077 0.156 0.249 0.131 0.495 0.067 0.707v0zM14.808 10.351c0.242-0.014 0.551 0.047 0.946 0.246 0.282 0.142 0.506 0.445 0.931 0.797 0.246 0.204 0.768 0.284 1.18 0.422-0.406 0.442-0.815 0.916-1.243 1.069-0.601 0.215-1.225 0.179-1.968-0.216-0.287-0.152-0.559-0.462-0.697-0.794s-0.142-0.658-0.010-0.909c0.168-0.318 0.375-0.501 0.64-0.578 0.066-0.019 0.14-0.032 0.22-0.037v0zM20.72 10.652v5.812c0 0.779 0.606 1.522 1.448 1.466 1.932-0.128 3.581-1.427 4.369-3.099 0.015 0.23 0.027 0.462 0.027 0.697 0 5.998-4.853 10.848-10.852 10.848-0.625 0-1.236-0.058-1.832-0.159 3.039-0.592 5.339-3.273 5.339-6.482 0-1.788-0.716-3.408-1.873-4.598 0.98 0.374 2.118-0.030 2.619-0.981 0.284-0.539 0.302-1.173 0.125-1.734-0.169-0.538-0.562-1.044-1.187-1.214 0.65 0.065 1.306-0.145 1.817-0.555v0zM23.315 12.223c-0.262-0.001-0.475 0.212-0.474 0.474 0.001 0.261 0.213 0.471 0.474 0.47h0.47c0.261 0.001 0.473-0.209 0.474-0.47 0.001-0.262-0.212-0.475-0.474-0.474h-0.47zM18.893 12.239c0.126 0.103 0.228 0.257 0.295 0.468 0.105 0.332 0.080 0.745-0.059 1.010-0.305 0.578-1.003 0.792-1.577 0.488-0.274-0.146-0.473-0.293-0.608-0.432 0.741-0.265 1.384-0.811 1.95-1.533h-0zM5.585 15.294c0.189-0.506 0.555-1.080 0.909-1.435s0.932-0.723 1.438-0.912c0.253-0.095 0.544-0.257 0.859-0.108 0.15 0.315 0.043 0.663-0.051 0.916-0.189 0.506-0.554 1.084-0.909 1.438s-0.932 0.72-1.438 0.909c-0.253 0.095-0.516 0.201-0.831 0.053-0.15-0.313-0.071-0.608 0.023-0.861v0zM12.617 14.075c3.132 0 5.663 2.527 5.663 5.659s-2.531 5.663-5.663 5.663c-0.929 0-1.802-0.227-2.575-0.622-0.057-0.035-0.117-0.066-0.173-0.102l-0.006 0.011c-1.736-0.966-2.908-2.818-2.908-4.949 0-1.498 0.582-2.853 1.593-3.934 1.088-1.093 2.503-1.726 4.070-1.726v-0.001zM22.897 14.18c-0.12 0.004-0.235 0.054-0.32 0.139-0.183 0.184-0.183 0.481 0 0.665l0.334 0.335c0.184 0.185 0.485 0.185 0.669 0 0.183-0.184 0.183-0.481 0-0.665l-0.334-0.335c-0.092-0.093-0.218-0.143-0.348-0.139v0zM13.56 17.377c-1.818 0-3.301 1.483-3.301 3.302s1.483 3.302 3.302 3.302c1.818 0 3.302-1.483 3.302-3.302s-1.483-3.302-3.302-3.302zM24.945 17.907c-0.12 0.001-0.235 0.051-0.321 0.136l-0.669 0.669c-0.183 0.184-0.183 0.481 0 0.665 0.184 0.185 0.484 0.185 0.669 0l0.669-0.665c0.185-0.184 0.185-0.484 0-0.669-0.093-0.091-0.218-0.14-0.348-0.136zM13.56 18.321c1.308 0 2.358 1.049 2.358 2.357s-1.050 2.358-2.358 2.358c-1.308 0-2.357-1.050-2.357-2.358s1.049-2.357 2.357-2.357zM20.63 18.743c-0.12 0.001-0.235 0.051-0.321 0.136-0.185 0.184-0.185 0.485 0 0.669l0.669 0.665c0.184 0.183 0.481 0.183 0.665 0 0.183-0.184 0.183-0.481 0-0.665l-0.665-0.669c-0.093-0.091-0.218-0.14-0.348-0.136zM22.883 19.999c-0.262-0.001-0.475 0.212-0.474 0.474v0.944c0.001 0.261 0.213 0.471 0.474 0.47 0.259-0.001 0.469-0.211 0.47-0.47v-0.944c0.001-0.261-0.209-0.473-0.47-0.474zM20.149 21.264c-0.261-0.001-0.473 0.21-0.474 0.471-0.001 0.262 0.212 0.475 0.474 0.474h0.944c0.261-0 0.472-0.213 0.471-0.474s-0.211-0.47-0.471-0.471h-0.944zM19.662 23.301c-0.121 0.004-0.236 0.054-0.321 0.14l-0.668 0.665c-0.185 0.184-0.185 0.484 0 0.668s0.484 0.185 0.668 0l0.669-0.668c0.183-0.184 0.183-0.481 0-0.665-0.092-0.093-0.218-0.144-0.348-0.14z"></path>
</symbol>
</defs>
</svg>
