<svg aria-hidden="true" style="position: absolute; width: 0; height: 0; overflow: hidden;" version="1.1" xmlns="http://www.w3.org/2000/svg" xmlns:xlink="http://www.w3.org/1999/xlink">
<defs>
<symbol id="icon-food" viewBox="0 0 32 32">
<path d="M16.002 1.375c-8.072 0-14.627 6.552-14.627 14.623s6.555 14.627 14.627 14.627c8.072 0 14.623-6.555 14.623-14.627s-6.552-14.623-14.623-14.623zM16.002 2.319c7.562 0 13.68 6.118 13.68 13.68s-6.118 13.683-13.68 13.683c-7.562 0-13.683-6.122-13.683-13.683s6.122-13.68 13.683-13.68zM11.624 6.745c-0.322 0.004-0.647 0.084-0.972 0.205-0.649 0.242-1.297 0.653-1.772 1.128-0.328 0.328-0.619 0.74-0.851 1.177-0.634 0.244-1.266 0.642-1.73 1.105-0.475 0.475-0.883 1.123-1.125 1.772-0.121 0.325-0.201 0.65-0.205 0.972-0.004 0.286 0.066 0.59 0.261 0.835-0.214 0.324-0.398 0.673-0.529 1.025-0.121 0.325-0.201 0.65-0.205 0.972s0.075 0.67 0.331 0.926 0.605 0.335 0.927 0.331c0.28-0.004 0.563-0.072 0.846-0.168-0.375 0.828-0.589 1.743-0.589 2.71 0 2.541 1.445 4.749 3.555 5.854 1.791 1.096 3.896 1.731 6.148 1.731 6.508 0 11.793-5.283 11.793-11.792 0-1.198-0.176-2.357-0.509-3.448l-0.002 0.001c-0.271-2.351-2.074-4.533-4.839-4.629-0.257-0.008-0.488 0.060-0.69 0.175-0.051-0.13-0.109-0.256-0.177-0.377-0.342-0.606-0.936-1.107-1.753-1.126-1.099 0.172-1.63 0.001-2.103-0.246h0c-0.472-0.247-0.896-0.647-1.581-0.825-0.336-0.087-0.654-0.134-0.952-0.14-0.496-0.011-0.937 0.089-1.308 0.293-0.594 0.327-0.969 0.907-1.166 1.655-0.256-0.060-0.536-0.119-0.801-0.116l0 0zM14.681 5.861c0.258-0.018 0.565 0.013 0.933 0.108 0.416 0.108 0.78 0.431 1.379 0.745 0.393 0.206 1.094 0.19 1.724 0.226-0.411 0.776-0.837 1.524-1.39 1.874-0.707 0.449-1.522 0.573-2.563 0.278-0.423-0.12-0.858-0.443-1.132-0.843s-0.383-0.848-0.275-1.243c0.127-0.467 0.352-0.786 0.689-0.971 0.168-0.093 0.376-0.157 0.634-0.174zM19.83 7.116c0.245 0.091 0.466 0.296 0.636 0.597 0.234 0.413 0.321 0.966 0.209 1.376-0.237 0.872-1.101 1.369-1.947 1.129-0.487-0.138-0.837-0.318-0.976-0.565 0.924-0.58 1.579-1.444 2.078-2.537zM11.791 8.642c-0.189 0.506-0.554 1.084-0.909 1.438-0.163 0.163-0.376 0.325-0.604 0.475 0.018-0.129 0.030-0.259 0.023-0.387-0.015-0.283-0.106-0.583-0.331-0.808-0.192-0.192-0.436-0.285-0.682-0.317 0.086-0.109 0.173-0.212 0.26-0.299 0.354-0.354 0.928-0.72 1.435-0.909 0.253-0.095 0.605-0.257 0.918-0.108 0.147 0.315-0.015 0.662-0.11 0.915zM22.12 8.395c2.487 0.086 3.97 2.18 3.97 4.301 0 2.039-1.836 4.152-3.984 4.294-0.202 0.014-0.445-0.256-0.445-0.526v-7.536c0-0.271 0.242-0.54 0.459-0.533zM13.853 9.705c-0.312 0.202-0.564 0.487-0.738 0.818-0.291 0.552-0.248 1.183-0.029 1.714 0.162 0.392 0.42 0.745 0.749 1.013-0.396-0.074-0.802-0.118-1.219-0.118-1.045 0-2.030 0.251-2.91 0.685 0.069-0.235 0.12-0.47 0.123-0.702 0.004-0.287-0.066-0.588-0.261-0.832 0.093-0.141 0.18-0.287 0.259-0.436 0.632-0.244 1.258-0.639 1.719-1.1 0.475-0.475 0.886-1.123 1.217-1.868 0.348 0.282 0.695 0.596 1.089 0.827v-0zM23.228 9.935c-0.119 0.006-0.233 0.054-0.317 0.139l-0.334 0.331c-0.185 0.184-0.185 0.485 0 0.669 0.184 0.185 0.484 0.185 0.668 0l0.334-0.335c0.183-0.184 0.183-0.481 0-0.665-0.093-0.093-0.22-0.144-0.352-0.139zM9.274 10.746c-0.108 0.355-0.321 0.765-0.568 1.12-0.044-0.004-0.089-0.008-0.133-0.008-0.322 0.004-0.646 0.084-0.971 0.205-0.614 0.229-1.224 0.612-1.69 1.054 0.002-0.164 0.052-0.401 0.146-0.653 0.189-0.506 0.555-1.081 0.909-1.436s0.928-0.723 1.435-0.912c0.253-0.095 0.491-0.197 0.804-0.077 0.156 0.249 0.131 0.495 0.067 0.707v0zM14.808 10.351c0.242-0.014 0.551 0.047 0.946 0.246 0.282 0.142 0.506 0.445 0.931 0.797 0.246 0.204 0.768 0.284 1.18 0.422-0.406 0.442-0.815 0.916-1.243 1.069-0.601 0.215-1.225 0.179-1.968-0.216-0.287-0.152-0.559-0.462-0.697-0.794s-0.142-0.658-0.010-0.909c0.168-0.318 0.375-0.501 0.64-0.578 0.066-0.019 0.14-0.032 0.22-0.037v0zM20.72 10.652v5.812c0 0.779 0.606 1.522 1.448 1.466 1.932-0.128 3.581-1.427 4.369-3.099 0.015 0.23 0.027 0.462 0.027 0.697 0 5.998-4.853 10.848-10.852 10.848-0.625 0-1.236-0.058-1.832-0.159 3.039-0.592 5.339-3.273 5.339-6.482 0-1.788-0.716-3.408-1.873-4.598 0.98 0.374 2.118-0.030 2.619-0.981 0.284-0.539 0.302-1.173 0.125-1.734-0.169-0.538-0.562-1.044-1.187-1.214 0.65 0.065 1.306-0.145 1.817-0.555v0zM23.315 12.223c-0.262-0.001-0.475 0.212-0.474 0.474 0.001 0.261 0.213 0.471 0.474 0.47h0.47c0.261 0.001 0.473-0.209 0.474-0.47 0.001-0.262-0.212-0.475-0.474-0.474h-0.47zM18.893 12.239c0.126 0.103 0.228 0.257 0.295 0.468 0.105 0.332 0.080 0.745-0.059 1.010-0.305 0.578-1.003 0.792-1.577 0.488-0.274-0.146-0.473-0.293-0.608-0.432 0.741-0.265 1.384-0.811 1.95-1.533h-0zM5.585 15.294c0.189-0.506 0.555-1.080 0.909-1.435s0.932-0.723 1.438-0.912c0.253-0.095 0.544-0.257 0.859-0.108 0.15 0.315 0.043 0.663-0.051 0.916-0.189 0.506-0.554 1.084-0.909 1.438s-0.932 0.72-1.438 0.909c-0.253 0.095-0.516 0.201-0.831 0.053-0.15-0.313-0.071-0.608 0.023-0.861v0zM12.617 14.075c3.132 0 5.663 2.527 5.663 5.659s-2.531 5.663-5.663 5.663c-0.929 0-1.802-0.227-2.575-0.622-0.057-0.035-0.117-0.066-0.173-0.102l-0.006 0.011c-1.736-0.966-2.908-2.818-2.908-4.949 0-1.498 0.582-2.853 1.593-3.934 1.088-1.093 2.503-1.726 4.070-1.726v-0.001zM22.897 14.18c-0.12 0.004-0.235 0.054-0.32 0.139-0.183 0.184-0.183 0.481 0 0.665l0.334 0.335c0.184 0.185 0.485 0.185 0.669 0 0.183-0.184 0.183-0.481 0-0.665l-0.334-0.335c-0.092-0.093-0.218-0.143-0.348-0.139v0zM13.56 17.377c-1.818 0-3.301 1.483-3.301 3.302s1.483 3.302 3.302 3.302c1.818 0 3.302-1.483 3.302-3.302s-1.483-3.302-3.302-3.302zM24.945 17.907c-0.12 0.001-0.235 0.051-0.321 0.136l-0.669 0.669c-0.183 0.184-0.183 0.481 0 0.665 0.184 0.185 0.484 0.185 0.669 0l0.669-0.665c0.185-0.184 0.185-0.484 0-0.669-0.093-0.091-0.218-0.14-0.348-0.136zM13.56 18.321c1.308 0 2.358 1.049 2.358 2.357s-1.050 2.358-2.358 2.358c-1.308 0-2.357-1.050-2.357-2.358s1.049-2.357 2.357-2.357zM20.63 18.743c-0.12 0.001-0.235 0.051-0.321 0.136-0.185 0.184-0.185 0.485 0 0.669l0.669 0.665c0.184 0.183 0.481 0.183 0.665 0 0.183-0.184 0.183-0.481 0-0.665l-0.665-0.669c-0.093-0.091-0.218-0.14-0.348-0.136zM22.883 19.999c-0.262-0.001-0.475 0.212-0.474 0.474v0.944c0.001 0.261 0.213 0.471 0.474 0.47 0.259-0.001 0.469-0.211 0.47-0.47v-0.944c0.001-0.261-0.209-0.473-0.47-0.474zM20.149 21.264c-0.261-0.001-0.473 0.21-0.474 0.471-0.001 0.262 0.212 0.475 0.474 0.474h0.944c0.261-0 0.472-0.213 0.471-0.474s-0.211-0.47-0.471-0.471h-0.944zM19.662 23.301c-0.121 0.004-0.236 0.054-0.321 0.14l-0.668 0.665c-0.185 0.184-0.185 0.484 0 0.668s0.484 0.185 0.668 0l0.669-0.668c0.183-0.184 0.183-0.481 0-0.665-0.092-0.093-0.218-0.144-0.348-0.14z"></path>
</symbol>
<symbol id="icon-delivery" viewBox="0 0 32 32">
<path stroke-linejoin="round" stroke-linecap="round" stroke-miterlimit="4" stroke-width="1" d="M26.5 9.5c0.552 0 1-0.448 1-1s-0.448-1-1-1c-0.552 0-1 0.448-1 1s0.448 1 1 1z"></path>
<path d="M22.75 12.284c0.295 0 0.535-0.239 0.535-0.535s-0.239-0.535-0.535-0.535c-0.295 0-0.535 0.239-0.535 0.535s0.239 0.535 0.535 0.535z"></path>
<path d="M8.25 7.784c0.295 0 0.535-0.239 0.535-0.535s-0.239-0.535-0.535-0.535c-0.295 0-0.535 0.239-0.535 0.535s0.239 0.535 0.535 0.535z"></path>
<path stroke-linejoin="round" stroke-linecap="round" stroke-miterlimit="4" stroke-width="1" d="M26.967 27h3.533v-5.258l-3.5-1.742-2.262-4.5h-5.151"></path>
<path stroke-linejoin="round" stroke-linecap="round" stroke-miterlimit="4" stroke-width="1" d="M10.336 27h11.758"></path>
<path stroke-linejoin="round" stroke-linecap="round" stroke-miterlimit="4" stroke-width="1" d="M5.374 12h-3.874v15h3.947"></path>
<path stroke-linejoin="round" stroke-linecap="round" stroke-miterlimit="4" stroke-width="1" d="M19.5 24.5v-12.5h-3.419"></path>
<path stroke-linejoin="round" stroke-linecap="round" stroke-miterlimit="4" stroke-width="1" d="M21.5 22h1"></path>
<path stroke-linejoin="round" stroke-linecap="round" stroke-miterlimit="4" stroke-width="1" d="M24.54 29.75c1.312 0 2.375-1.063 2.375-2.375s-1.063-2.375-2.375-2.375c-1.312 0-2.375 1.063-2.375 2.375s1.063 2.375 2.375 2.375z"></path>
<path stroke-linejoin="round" stroke-linecap="round" stroke-miterlimit="4" stroke-width="1" d="M7.87 29.75c1.312 0 2.375-1.063 2.375-2.375s-1.063-2.375-2.375-2.375c-1.312 0-2.375 1.063-2.375 2.375s1.063 2.375 2.375 2.375z"></path>
<path stroke-linejoin="round" stroke-linecap="round" stroke-miterlimit="4" stroke-width="1" d="M13 18.5h-1.5v3h1.5"></path>
<path stroke-linejoin="round" stroke-linecap="round" stroke-miterlimit="4" stroke-width="1" d="M13 20h-1.5"></path>
<path stroke-linejoin="round" stroke-linecap="round" stroke-miterlimit="4" stroke-width="1" d="M16 18.5h-1.5v3h1.5"></path>
<path stroke-linejoin="round" stroke-linecap="round" stroke-miterlimit="4" stroke-width="1" d="M16 20h-1.5"></path>
<path stroke-linejoin="round" stroke-linecap="round" stroke-miterlimit="4" stroke-width="1" d="M6.5 18.5h-1.5v3"></path>
<path stroke-linejoin="round" stroke-linecap="round" stroke-miterlimit="4" stroke-width="1" d="M6.5 20h-1.5"></path>
<path stroke-linejoin="round" stroke-linecap="round" stroke-miterlimit="4" stroke-width="1" d="M8 21.5v-3h1.322c0.18 0 0.352 0.071 0.479 0.199s0.199 0.3 0.199 0.479v0.144c0 0.18-0.071 0.352-0.199 0.479s-0.3 0.199-0.479 0.199h-0.822l1.5 1.5"></path>
<path stroke-linejoin="round" stroke-linecap="round" stroke-miterlimit="4" stroke-width="1" d="M15.778 11.375l-1.967-2.458c-0.148-0.193-0.359-0.329-0.596-0.382s-0.486-0.022-0.703 0.090c-0.127 0.071-0.238 0.168-0.323 0.286s-0.145 0.253-0.173 0.395c-0.028 0.143-0.025 0.29 0.010 0.431s0.1 0.274 0.191 0.387l0.7 0.875h-6.419c-0.265 0-0.52 0.105-0.707 0.293s-0.293 0.442-0.293 0.707c0 0.265 0.105 0.52 0.293 0.707s0.442 0.293 0.707 0.293h6.419l-0.659 0.823c-0.175 0.214-0.259 0.487-0.234 0.762s0.155 0.529 0.365 0.709c0.208 0.159 0.469 0.231 0.729 0.199s0.497-0.164 0.66-0.368l2-2.5c0.142-0.177 0.219-0.398 0.219-0.625s-0.077-0.447-0.219-0.625v0z"></path>
<path stroke-linejoin="round" stroke-linecap="round" stroke-miterlimit="4" stroke-width="1" d="M16.5 3.5l-1.5 1.5"></path>
<path stroke-linejoin="round" stroke-linecap="round" stroke-miterlimit="4" stroke-width="1" d="M15 3.5l1.5 1.5"></path>
<path stroke-linejoin="round" stroke-linecap="butt" stroke-miterlimit="4" stroke-width="1" d="M19.5 20h7.5"></path>
<path stroke-linejoin="round" stroke-linecap="butt" stroke-miterlimit="4" stroke-width="1" d="M1.5 25h29"></path>
</symbol>
<symbol id="icon-discount" viewBox="0 0 32 32">
<path d="M14.35 1.569c0.911-0.911 2.389-0.911 3.3 0l0.596 0.595c0.099 0.099 0.249 0.126 0.377 0.066l0.763-0.356c1.168-0.545 2.556-0.039 3.101 1.129l0.668 1.433c0.055 0.117 0.173 0.192 0.302 0.192h1.581c1.289 0 2.333 1.045 2.333 2.333v1.581c0 0.13 0.075 0.247 0.192 0.302l1.433 0.668c1.168 0.545 1.673 1.933 1.128 3.101l-0.356 0.763c-0.059 0.127-0.033 0.277 0.066 0.377l0.595 0.595c0.911 0.911 0.911 2.389 0 3.3l-0.595 0.596c-0.099 0.099-0.126 0.25-0.066 0.377l0.356 0.763c0.545 1.168 0.039 2.556-1.128 3.101l-1.433 0.668c-0.117 0.055-0.192 0.173-0.192 0.302v1.581c0 1.289-1.045 2.333-2.333 2.333h-1.581c-0.13 0-0.247 0.075-0.302 0.193l-0.668 1.433c-0.545 1.168-1.933 1.673-3.101 1.129l-0.763-0.356c-0.127-0.059-0.277-0.033-0.377 0.066l-0.596 0.596c-0.911 0.911-2.389 0.911-3.3 0l-0.596-0.596c-0.099-0.099-0.249-0.126-0.377-0.066l-0.763 0.356c-1.168 0.545-2.556 0.039-3.101-1.129l-0.668-1.433c-0.055-0.117-0.173-0.193-0.302-0.193h-1.581c-1.289 0-2.333-1.045-2.333-2.333v-1.581c0-0.13-0.075-0.247-0.192-0.302l-1.433-0.668c-1.168-0.545-1.673-1.933-1.129-3.101l0.356-0.763c0.059-0.127 0.033-0.278-0.066-0.377l-0.595-0.596c-0.911-0.911-0.911-2.389 0-3.3l0.595-0.595c0.099-0.099 0.126-0.25 0.066-0.377l-0.356-0.763c-0.545-1.168-0.039-2.556 1.129-3.101l1.433-0.668c0.117-0.055 0.192-0.173 0.192-0.302v-1.581c0-1.289 1.045-2.333 2.333-2.333h1.581c0.13 0 0.247-0.075 0.302-0.192l0.668-1.433c0.545-1.168 1.933-1.673 3.101-1.129l0.763 0.356c0.127 0.059 0.277 0.033 0.377-0.066l0.596-0.595zM16.236 2.983c-0.13-0.13-0.341-0.13-0.471 0l-0.595 0.595c-0.694 0.694-1.747 0.879-2.636 0.465l-0.763-0.356c-0.167-0.078-0.365-0.006-0.443 0.161l-0.668 1.433c-0.383 0.822-1.208 1.347-2.115 1.347h-1.581c-0.184 0-0.333 0.149-0.333 0.333v1.581c0 0.907-0.525 1.732-1.347 2.115l-1.433 0.668c-0.167 0.078-0.239 0.276-0.161 0.443l0.356 0.763c0.415 0.889 0.229 1.942-0.465 2.636l-0.595 0.595c-0.13 0.13-0.13 0.341 0 0.471l0.595 0.596c0.694 0.694 0.879 1.747 0.465 2.636l-0.356 0.763c-0.078 0.167-0.006 0.365 0.161 0.443l1.433 0.668c0.822 0.383 1.347 1.208 1.347 2.115v1.581c0 0.184 0.149 0.333 0.333 0.333h1.581c0.907 0 1.732 0.525 2.115 1.347l0.668 1.433c0.078 0.167 0.276 0.239 0.443 0.161l0.763-0.356c0.889-0.415 1.942-0.229 2.636 0.465l0.595 0.595c0.13 0.13 0.341 0.13 0.471 0l0.596-0.595c0.694-0.694 1.747-0.879 2.636-0.465l0.763 0.356c0.167 0.078 0.365 0.006 0.443-0.161l0.668-1.433c0.383-0.822 1.208-1.347 2.115-1.347h1.581c0.184 0 0.333-0.149 0.333-0.333v-1.581c0-0.907 0.525-1.731 1.347-2.115l1.433-0.668c0.167-0.078 0.239-0.276 0.161-0.443l-0.356-0.763c-0.415-0.889-0.229-1.942 0.465-2.636l0.596-0.596c0.13-0.13 0.13-0.341 0-0.471l-0.596-0.595c-0.694-0.694-0.879-1.747-0.465-2.636l0.356-0.763c0.078-0.167 0.006-0.365-0.161-0.443l-1.433-0.668c-0.822-0.383-1.347-1.208-1.347-2.115v-1.581c0-0.184-0.149-0.333-0.333-0.333h-1.581c-0.907 0-1.732-0.525-2.115-1.347l-0.668-1.433c-0.078-0.167-0.276-0.239-0.443-0.161l-0.763 0.356c-0.889 0.415-1.942 0.229-2.636-0.465l-0.596-0.595z"></path>
<path d="M22.364 9.636c0.391 0.391 0.391 1.024 0 1.414l-11.314 11.314c-0.391 0.391-1.024 0.391-1.414 0s-0.391-1.024 0-1.414l11.314-11.314c0.391-0.391 1.024-0.391 1.414 0z"></path>
<path d="M9.667 10.667c0-1.289 1.045-2.333 2.333-2.333s2.333 1.045 2.333 2.333v1.333c0 1.289-1.045 2.333-2.333 2.333s-2.333-1.045-2.333-2.333v-1.333zM12 10.333c-0.184 0-0.333 0.149-0.333 0.333v1.333c0 0.184 0.149 0.333 0.333 0.333s0.333-0.149 0.333-0.333v-1.333c0-0.184-0.149-0.333-0.333-0.333z"></path>
<path d="M17.667 18.667c0-1.289 1.045-2.333 2.333-2.333s2.333 1.045 2.333 2.333v1.333c0 1.289-1.045 2.333-2.333 2.333s-2.333-1.045-2.333-2.333v-1.333zM20 18.333c-0.184 0-0.333 0.149-0.333 0.333v1.333c0 0.184 0.149 0.333 0.333 0.333s0.333-0.149 0.333-0.333v-1.333c0-0.184-0.149-0.333-0.333-0.333z"></path>
</symbol>
<symbol id="icon-time" viewBox="0 0 32 32">
<path d="M18.46 16.578c0.043-0.186 0.066-0.379 0.066-0.578 0-1.1-0.703-2.036-1.684-2.383v-7.717c0-0.456-0.377-0.848-0.842-0.848-0.451 0-0.842 0.38-0.842 0.848v7.717c-0.981 0.347-1.684 1.283-1.684 2.383 0 1.395 1.131 2.526 2.526 2.526 0.583 0 1.121-0.198 1.548-0.53l4.177 2.411c0.413 0.238 0.914 0.093 1.147-0.31 0.226-0.391 0.096-0.917-0.305-1.148l-4.107-2.371zM16 32c-8.837 0-16-7.163-16-16s7.163-16 16-16c8.837 0 16 7.163 16 16s-7.163 16-16 16zM16 30.316c7.906 0 14.316-6.409 14.316-14.316s-6.409-14.316-14.316-14.316c-7.906 0-14.316 6.409-14.316 14.316s6.409 14.316 14.316 14.316z"></path>
</symbol>
</defs>
</svg>
